<?xml version="1.0" encoding="UTF-8" standalone="no"?>
<svg
   version="1.1"
   width="503.89209"
   height="443.47141"
   id="svg3"
   sodipodi:docname="cover[1].svg"
   inkscape:version="1.4 (86a8ad7, 2024-10-11)"
   xmlns:inkscape="http://www.inkscape.org/namespaces/inkscape"
   xmlns:sodipodi="http://sodipodi.sourceforge.net/DTD/sodipodi-0.dtd"
   xmlns="http://www.w3.org/2000/svg"
   xmlns:svg="http://www.w3.org/2000/svg">
  <defs
     id="defs3" />
  <sodipodi:namedview
     id="namedview3"
     pagecolor="#ffffff"
     bordercolor="#000000"
     borderopacity="0.25"
     inkscape:showpageshadow="2"
     inkscape:pageopacity="0.0"
     inkscape:pagecheckerboard="0"
     inkscape:deskcolor="#d1d1d1"
     inkscape:zoom="0.35820009"
     inkscape:cx="1461.4737"
     inkscape:cy="-238.69341"
     inkscape:window-width="1920"
     inkscape:window-height="1051"
     inkscape:window-x="-9"
     inkscape:window-y="-9"
     inkscape:window-maximized="1"
     inkscape:current-layer="svg3">
    <inkscape:page
       x="0"
       y="0"
       width="503.89209"
       height="443.47141"
       id="page2"
       margin="0"
       bleed="0" />
  </sodipodi:namedview>
  <g
     id="g1"
     transform="translate(-1636.1821,583.60671)"
     inkscape:export-filename="g1.svg"
     inkscape:export-xdpi="96"
     inkscape:export-ydpi="96">
    <path
       d="m 2129.9604,-543.22387 c 4.7642,3.45426 7.3886,7.64068 9.668,12.99219 1.1067,7.13211 0.1711,13.27444 -3.0117,19.73828 -4.5592,6.03304 -10.4819,8.46474 -17.3008,11.19922 -1.8908,0.78692 -3.7801,1.57733 -5.668,2.37109 -0.9286,0.39042 -1.8572,0.78085 -2.814,1.1831 -19.0812,8.18169 -36.3646,19.32674 -52.643,32.13331 -0.9617,0.74765 -1.9233,1.49531 -2.9141,2.26562 -34.6078,27.08862 -34.6078,27.08862 -55.0859,63.73438 -0.2475,1.21687 -0.495,2.43375 -0.75,3.6875 0.041,3.18902 0.5996,4.15214 2.8164,6.51562 2.9111,2.36861 5.8976,4.59097 8.9336,6.79688 22.4685,17.72981 41.7605,38.01597 56,63 0.3566,0.61891 0.7131,1.23782 1.0805,1.87548 26.0003,45.52012 28.7419,97.16363 18.0445,147.68702 -0.3483,1.68621 -0.3483,1.68621 -0.7036,3.40649 -2.1199,9.4082 -5.3825,16.45296 -13.4214,22.03101 -6.0838,2.97113 -13.2961,3.14252 -19.7227,1.16015 -6.7962,-3.04445 -11.194,-7.25717 -14.1172,-14.13672 -2.63,-8.62928 0.3715,-17.82631 2.2774,-26.33593 5.6561,-26.23657 6.1753,-51.97164 -0.5352,-78.05079 -0.7958,-3.20737 -1.4112,-6.37087 -1.9023,-9.63671 -26.4413,2.79079 -50.4051,9.88804 -72,26 -1.0635,0.78117 -2.127,1.56234 -3.2227,2.36718 -6.4215,4.78721 -12.4423,9.88984 -18.3086,15.35157 -2.0492,1.89355 -4.1361,3.68722 -6.2812,5.46875 -10.4477,9.12029 -19.4129,19.92533 -27.7661,30.9497 -1.5172,1.98826 -3.059,3.95553 -4.605,5.92139 -6.0864,7.782 -11.7968,15.6795 -17.0391,24.05786 -9.9041,15.79639 -9.9041,15.79639 -19.7773,18.88355 -7.2952,1.16105 -13.8042,0.0943 -20,-4 -5.9295,-5.12508 -8.5706,-11.1969 -9.4375,-18.875 0.4474,-9.64721 6.624,-17.99771 11.875,-25.6875 0.7079,-1.04777 1.4158,-2.09554 2.1452,-3.17505 9.3482,-13.71957 19.4405,-26.80646 30.4173,-39.26245 0.9554,-1.0868 0.9554,-1.0868 1.9302,-2.19556 5.4695,-6.15404 11.1507,-12.07159 16.9711,-17.89111 1.4707,-1.47289 2.9332,-2.95364 4.3956,-4.43482 6.2291,-6.2665 12.7356,-12.034 19.7031,-17.47851 0.9793,-0.76825 0.9793,-0.76825 1.9785,-1.55201 13.7402,-10.60714 28.6231,-19.47674 44.0215,-27.44799 -0.5932,-0.37697 -1.1863,-0.75394 -1.7974,-1.14234 -1.7723,-1.12659 -3.5443,-2.25357 -5.3162,-3.38086 -2.0136,-1.28001 -4.0284,-2.55815 -6.0444,-3.83447 -4.4494,-2.8215 -8.8881,-5.64721 -13.2444,-8.61108 -0.6295,-0.42354 -1.2591,-0.84708 -1.9077,-1.28345 -1.6447,-1.11243 -3.279,-2.24015 -4.9126,-3.3689 -2.6251,-1.56897 -2.6251,-1.56897 -5.2187,-1.33594 -3.3378,1.2485 -6.3534,2.93853 -9.4336,4.70704 -26.8446,14.77788 -58.2323,15.81057 -87.3203,7.63281 -24.2239,-7.13503 -49.2714,-22.18231 -64.8047,-42.38281 -3.3593,1.11975 -3.8092,1.73602 -5.793,4.51562 -0.5396,0.74596 -1.0793,1.49193 -1.6352,2.2605 -0.5806,0.81638 -1.1612,1.63276 -1.7593,2.47388 -1.2601,1.74205 -2.5219,3.4829 -3.7852,5.22265 -0.6589,0.90895 -1.3177,1.8179 -1.9966,2.7544 -3.3215,4.53552 -6.7388,8.9966 -10.1557,13.46045 -0.664,0.87366 -1.3279,1.74732 -2.012,2.64746 -3.1627,4.15894 -6.3503,8.29103 -9.613,12.37207 -0.5722,0.72808 -1.1444,1.45615 -1.7339,2.2063 -1.065,1.35406 -2.144,2.69719 -3.2393,4.02685 -1.603,1.97113 -1.603,1.97113 -3.2768,5.05982 0.4558,2.7412 0.4558,2.7412 2,5 6.1389,14.98004 4.608,30.14762 -1.125,45.125 -3.0777,6.88995 -7.3601,12.87666 -11.875,18.875 -0.5156,0.69093 -1.0313,1.38187 -1.5625,2.09375 -8.6179,10.77234 -23.4391,20.54254 -37.3047,22.73046 -11.2774,0.92946 -20.694,-0.318 -30.0938,-7.02734 -7.6008,-6.69804 -10.9388,-15.98716 -12.039,-25.79687 -0.3301,-22.06608 8.6366,-40.15248 23.625,-56.0625 12.0165,-11.70701 26.5854,-18.03988 43.375,-17.9375 0.6385,0.16105 1.277,0.3221 1.9348,0.48803 2.1901,0.52502 3.8248,0.79499 6.0652,0.51197 2.8391,-2.14587 4.6788,-4.90292 6.6875,-7.8125 0.5996,-0.8188 1.1991,-1.6376 1.8169,-2.48121 1.8591,-2.55035 3.6786,-5.12579 5.4956,-7.70629 1.0742,-1.49143 2.151,-2.9811 3.2304,-4.46875 1.5772,-2.1756 3.1512,-4.35299 4.7134,-6.53931 5.0721,-7.08871 10.3572,-14.00893 15.6768,-20.91309 6.2598,-6.92536 6.2598,-6.92536 9.2544,-15.07885 -0.2888,-0.66 -0.5775,-1.32 -0.875,-2 -2.6728,-6.44614 -3.1801,-13.0071 -1.1953,-19.72266 2.8622,-6.54359 6.8767,-10.07073 13.1953,-13.27734 6.6338,-2.21128 13.9014,-1.91755 20.3125,0.875 5.6058,3.18673 8.3225,7.78107 11.6875,13.125 15.0004,21.19155 33.9936,35.33023 59.8867,40.58593 18.9541,2.52088 37.2674,-1.47573 52.9609,-12.60547 2.4472,-1.9304 4.8055,-3.93011 7.1524,-5.98046 0.611,-0.47954 1.222,-0.95907 1.8515,-1.45313 11.6465,-9.25336 19.7342,-23.03504 27.336,-35.60937 8.1109,-13.24764 16.836,-26.01528 26.8125,-37.9375 1.2433,-1.50241 1.2433,-1.50241 2.5117,-3.03516 11.5191,-13.83375 23.659,-27.39653 37.4883,-38.96484 0.8097,-0.68039 0.8097,-0.68039 1.6357,-1.37452 25.3267,-21.20043 52.8714,-37.95923 83.3643,-50.62548 0.8636,-0.36352 1.7273,-0.72704 2.6172,-1.10157 8.6976,-3.3119 16.9845,-3.11243 25.1523,1.48438 z"
       fill="#4b4cb5"
       id="path1" />
    <path
       d="m 1923.976,-495.45825 c 10.9068,9.11785 17.1827,19.34238 18.6016,33.78907 0.5594,12.8414 -2.4919,23.86157 -10.3867,34.0625 -0.7219,1.03125 -1.4438,2.0625 -2.1875,3.125 -6.4211,7.3853 -17.3459,13.13191 -27.0547,14.09814 -16.078,1.01121 -28.2792,-1.4596 -40.7578,-12.22314 -8.2601,-7.77603 -13.7912,-18.22675 -14.336,-29.67188 -0.168,-9.3879 -0.2366,-17.87083 4.336,-26.32812 0.7637,-1.41346 0.7637,-1.41346 1.5429,-2.85547 7.0136,-11.89259 16.3774,-17.81533 29.2071,-22.51953 14.493,-2.89259 29.1949,-0.49584 41.0351,8.52343 z"
       fill="#3a45c8"
       id="path2" />
    <path
       d="m 1847.1909,-583.60668 c 0.33,0 0.66,0 1,0 0.073,1.10408 0.073,1.10408 0.1484,2.23046 0.075,0.97582 0.1495,1.95164 0.2266,2.95704 0.07,0.96293 0.1392,1.92585 0.2109,2.91796 0.4212,2.94447 1.0873,5.23634 2.4141,7.89454 2.5928,1.18529 4.1729,1.27282 6.8828,0.3789 1.7324,-0.73293 3.4282,-1.55095 5.1172,-2.3789 -0.234,0.85271 -0.234,0.85271 -0.4727,1.72265 -1.31,5.19652 -1.6435,9.0315 -0.5273,14.27735 5.9146,1.59854 11.1528,0.2589 17,-1 -11.019,11.37444 -30.7589,30.9178 -47.5625,31.25 -0.7851,0.0258 -1.5701,0.0516 -2.3789,0.0781 -0.6794,-0.10828 -1.3587,-0.21656 -2.0586,-0.32812 -2.7165,-4.07474 -2.5978,-7.2967 -2,-12 3.8197,-16.64477 12.5064,-33.91221 22,-48 z"
       fill="#b57744"
       id="path3" />
  </g>
</svg>
