<svg width="214" height="202" viewBox="0 0 214 202" fill="none" xmlns="http://www.w3.org/2000/svg">
<path d="M11.8809 98.629C11.8809 98.629 36.529 43.0905 95.7956 48.4434C155.062 53.7964 185.501 88.9271 201.011 103.031C226.005 125.758 219.636 171.977 139.189 154.806C58.7424 137.634 18.5336 165.215 5.96952 152.292C-6.59454 139.368 9.87553 102.548 11.8809 98.629Z" fill="#F9E0CF"/>
<path d="M23.6205 185.905C51.8798 183.765 99.6418 186.004 136.997 185.689C174.353 185.374 197.113 185.655 202.682 189.745C208.251 193.835 185.521 201.169 158.874 201.169C132.227 201.169 114.565 197.095 89.1426 198.725C63.7206 200.355 41.4424 201.496 23.62 196.715C5.79806 191.933 4.60505 187.344 23.6205 185.905Z" fill="#F9E0CF"/>
<path d="M43.8762 168.978L36.4126 168.146L37.4258 183.822L37.4 183.82C37.4 183.82 33.9116 189.126 32.8907 190.356C31.8702 191.585 32.1704 192.757 33.1309 192.932C34.0914 193.108 35.5457 193.167 37.4 192.932C38.7036 192.768 41.1374 191.532 42.4683 190.813C43.0385 190.505 43.385 189.914 43.3655 189.278L43.2422 184.127L43.8762 168.978Z" fill="#FFA199"/>
<path d="M63.2816 187.391C62.1086 186.555 58.6967 183.123 58.6967 183.123V168.562H51.1264L53.0158 182.475C53.0158 182.475 53.5792 189.26 53.8989 189.988C54.2186 190.716 59.0169 191.444 60.0832 191.964C61.1495 192.484 66.5872 192.484 67.3338 191.444C68.0799 190.404 64.4546 188.226 63.2816 187.391Z" fill="#FFA199"/>
<path d="M42.1159 82.2564L33.0938 85.3336L36.2927 100.687L35.0865 110.493H56.1274L54.5191 99.6416L56.1274 84.215L47.6842 82.2564H42.1159Z" fill="#005355"/>
<path d="M47.7365 81.8642L47.6526 80.5702C49.1736 79.6503 50.8783 77.9265 51.2063 76.6472C51.6741 74.8212 51.2063 67.5814 51.2063 67.5814L38.3026 68.2336C38.3026 68.2336 38.4376 71.0228 38.8104 73.6593C38.3986 73.1782 37.8128 72.6601 37.1563 72.5959C35.9 72.4732 35.2718 74.7038 36.1008 76.0278C36.8259 77.1858 39.0511 77.2367 39.5974 77.2315C39.633 77.3242 39.6691 77.4131 39.7066 77.4953C40.2339 78.6529 41.3796 79.5714 42.5897 80.2065L42.6467 81.8647L37.6807 83.7681C37.6807 83.7681 40.7324 86.4118 45.867 86.0491C45.9474 86.0434 46.0176 86.0329 46.0961 86.0263L46.1492 86.0491L46.1755 86.0182C51.025 85.578 51.8247 83.2172 51.8247 83.2172L47.7365 81.8642Z" fill="#FFA199"/>
<path d="M34.9653 110.493C34.9653 110.493 31.6402 119.317 32.3546 135.789C33.0691 152.262 35.5365 169.519 35.5365 169.519L43.8763 170.572L46.829 123.338L51.2565 169.519H60.55C60.55 169.519 63.6666 129.097 56.1591 110.493H34.9653Z" fill="#4C3600"/>
<path d="M37.68 83.7677L42.013 119.39L30.9314 117.593C30.9314 117.593 33.7458 100.231 33.0757 98.2696C32.4056 96.3086 30.9314 86.0833 30.9314 86.0833C30.9314 86.0833 34.7794 84.3006 37.68 83.7677Z" fill="#FFC215"/>
<path d="M51.8241 83.2167L51.3884 119.39L61.5051 116.938L57.3335 98.783L58.4056 84.4185L51.8241 83.2167Z" fill="#FFC215"/>
<path d="M30.932 86.0828C30.932 86.0828 28.2857 98.5049 29.0898 103.669C29.8939 108.833 34.4506 108.833 38.2031 108.179C41.9556 107.526 55.0893 103.081 55.0893 103.081L53.079 98.783L36.2927 100.687C36.2927 100.687 33.0426 88.041 30.932 86.0828Z" fill="#D69F18"/>
<path d="M58.4058 84.4185C58.4058 84.4185 60.5096 91.9854 61.8663 98.2112C63.2231 104.437 60.2479 107.297 56.1275 107.068C52.007 106.84 44.3427 93.0265 44.3427 93.0265L48.696 90.0529L56.4471 98.3091C56.4471 98.3091 56.663 86.3139 58.4058 84.4185Z" fill="#D69F18"/>
<path d="M54.3048 73.4663C54.3048 71.7982 53.9384 63.3965 47.4027 62.4433C40.867 61.4902 39.9786 63.9926 39.9786 63.9926C39.9786 63.9926 37.0194 64.112 35.3089 67.5814C33.5988 71.0508 33.5374 81.2124 33.5374 81.2124C35.4307 81.6892 38.9547 81.4535 38.9547 81.4535L39.2787 80.0805L39.5843 81.3978C40.9893 81.5233 42.8353 81.3978 42.8353 81.3978L42.7296 80.2792C39.9118 78.8307 39.4922 76.9358 39.4922 76.9358C39.4922 76.9358 37.9961 77.0418 36.8966 76.148C35.7972 75.2543 35.9804 73.4074 36.8966 72.99C37.8128 72.5731 38.9547 74.3972 38.9547 74.3972L39.5097 76.1176C39.5097 76.1176 40.7827 74.5488 40.2802 72.3591C42.4245 72.1305 43.2252 71.9474 45.1049 71.2805C46.9475 70.6268 48.4197 68.5721 48.3549 68.3387C49.3013 71.4625 50.7619 72.2151 50.7619 72.2151C50.7619 72.2151 51.006 73.8238 50.6396 76.1476C50.2731 78.4713 48.0133 80.1994 48.0133 80.1994L48.1697 81.5119L51.3589 81.2129L51.4139 80.0805L51.8613 81.2129L54.9764 80.6168C54.9764 80.6168 54.3048 75.1345 54.3048 73.4663Z" fill="#4C3600"/>
<path d="M47.2828 71.4202C47.2828 71.4202 48.2629 70.7984 49.3686 71.3988" stroke="#4C3600" stroke-width="0.75" stroke-miterlimit="10" stroke-linecap="round" stroke-linejoin="round"/>
<path d="M46.4285 75.0223C46.4285 75.0223 46.931 75.0223 47.0065 75.3898C47.0821 75.7573 46.7175 76.0515 46.7175 76.0515" stroke="#4C3600" stroke-width="0.75" stroke-miterlimit="10" stroke-linecap="round" stroke-linejoin="round"/>
<path d="M42.7296 80.2783C42.7296 80.2783 45.1745 81.9502 47.6526 80.5697" stroke="#4C3600" stroke-width="0.75" stroke-miterlimit="10" stroke-linecap="round" stroke-linejoin="round"/>
<path d="M46.7222 77.9146C46.7222 77.9146 45.7748 77.7511 45.0043 78.0781" stroke="#4C3600" stroke-width="0.75" stroke-miterlimit="10" stroke-linecap="round" stroke-linejoin="round"/>
<path d="M48.3256 73.7925C48.5202 73.7925 48.678 73.4753 48.678 73.0841C48.678 72.6929 48.5202 72.3758 48.3256 72.3758C48.131 72.3758 47.9733 72.6929 47.9733 73.0841C47.9733 73.4753 48.131 73.7925 48.3256 73.7925Z" fill="#4C3600"/>
<path d="M43.5468 73.9821C43.7414 73.9821 43.8991 73.665 43.8991 73.2738C43.8991 72.8826 43.7414 72.5655 43.5468 72.5655C43.3522 72.5655 43.1945 72.8826 43.1945 73.2738C43.1945 73.665 43.3522 73.9821 43.5468 73.9821Z" fill="#4C3600"/>
<path d="M48.7856 90.1727L45.652 85.9935C45.688 85.5195 45.746 84.5573 45.6642 84.1043C45.553 83.49 44.9868 82.863 44.611 82.5545C44.2353 82.2464 44.1237 81.9341 43.8498 81.8547C43.5759 81.7753 43.4512 82.2031 43.5876 82.545C43.7241 82.8868 44.0155 83.3798 44.0155 83.3798L44.1666 84.4641C44.1666 84.4641 42.1329 81.8552 41.7382 81.2619C41.3439 80.669 41.4677 80.2478 41.0574 80.1252C40.6465 80.0025 40.3926 81.2029 40.6202 81.7786C40.8473 82.3543 41.2084 83.0042 41.2084 83.0042C41.2084 83.0042 40.8312 83.424 40.7771 83.9954C40.723 84.5673 40.4925 84.6286 40.4433 85.1458C40.3946 85.6631 40.5715 86.1732 40.5715 86.1732C40.5715 86.1732 40.4262 86.5169 40.6948 86.9528C40.915 87.3103 42.6729 88.2117 43.2981 88.524L44.8484 92.7669L48.7856 90.1727Z" fill="#E58883"/>
<path d="M41.2085 83.0042C41.2085 83.0042 41.5535 84.4185 41.8552 84.7128" stroke="#4C3600" stroke-width="0.75" stroke-miterlimit="10" stroke-linecap="round" stroke-linejoin="round"/>
<path d="M40.6816 84.4185C40.6816 84.4185 40.7294 85.3013 41.2085 85.7586" stroke="#4C3600" stroke-width="0.75" stroke-miterlimit="10" stroke-linecap="round" stroke-linejoin="round"/>
<path d="M40.5721 86.1737C40.5721 86.1737 40.5882 86.4941 40.9454 86.7227" stroke="#4C3600" stroke-width="0.75" stroke-miterlimit="10" stroke-linecap="round" stroke-linejoin="round"/>
<path d="M43.2993 88.525L44.4684 87.3113" stroke="#4C3600" stroke-width="0.75" stroke-miterlimit="10" stroke-linecap="round" stroke-linejoin="round"/>
<path d="M30.932 86.0828C30.932 86.0828 35.3877 93.4572 36.2927 100.687C36.2927 100.687 34.5846 102.035 34.1153 104.257" stroke="#4C3600" stroke-width="0.75" stroke-miterlimit="10" stroke-linecap="round" stroke-linejoin="round"/>
<path d="M48.7857 90.1727L44.3427 93.0265C44.3427 93.0265 50.8359 106.174 56.4471 107.079C62.0584 107.983 62.5311 101.545 62.1987 99.8779" stroke="#4C3600" stroke-width="0.75" stroke-miterlimit="10" stroke-linecap="round" stroke-linejoin="round"/>
<path d="M54.3102 96.0329C54.3102 96.0329 55.7425 93.5447 56.6889 93.1567C57.6358 92.7693 60.0228 93.2837 60.1232 93.7743C60.2236 94.2644 57.7611 94.0928 57.7611 94.0928L57.3342 94.4113C57.3342 94.4113 58.3644 94.4213 59.0681 94.5263C59.7718 94.6314 60.2996 94.8277 60.3747 95.122C60.4502 95.4163 59.495 95.5385 59.495 95.5385C59.495 95.5385 60.0228 95.8327 60.0228 96.2002C60.0228 96.5677 59.0681 96.5187 59.0681 96.5187C59.0681 96.5187 59.4955 96.813 59.4955 97.1562C59.4955 97.4995 58.5155 97.5009 58.1636 97.2794C57.8118 97.0583 57.6612 97.0336 57.6612 97.0336C57.6612 97.0336 56.9175 98.1365 56.4477 98.3081L54.3102 96.0329Z" fill="#FFA199"/>
<path d="M52.3813 93.9787C52.3813 93.9787 57.0325 98.7992 58.2889 100.76" stroke="#4C3600" stroke-width="0.75" stroke-miterlimit="10" stroke-linecap="round" stroke-linejoin="round"/>
<path d="M59.4949 95.5389C59.4949 95.5389 58.3847 94.9014 57.3442 95.1225" stroke="#4C3600" stroke-width="0.75" stroke-miterlimit="10" stroke-linecap="round" stroke-linejoin="round"/>
<path d="M59.0681 96.5197C59.0681 96.5197 58.1338 96.1522 57.3448 96.1522" stroke="#4C3600" stroke-width="0.75" stroke-miterlimit="10" stroke-linecap="round" stroke-linejoin="round"/>
<path d="M42.0135 111.644L50.5995 112.134" stroke="#664702" stroke-miterlimit="10" stroke-linecap="round" stroke-linejoin="round"/>
<path d="M46.829 123.338C46.829 123.338 46.8169 117.393 49.1259 116.481" stroke="#664702" stroke-miterlimit="10" stroke-linecap="round" stroke-linejoin="round"/>
<path d="M36.4127 167.859L43.0278 168.562" stroke="#664702" stroke-miterlimit="10" stroke-linecap="round" stroke-linejoin="round"/>
<path d="M52.2751 168.21L58.6967 168.146" stroke="#664702" stroke-miterlimit="10" stroke-linecap="round" stroke-linejoin="round"/>
<path d="M37.8104 121.841C37.8104 121.841 36.2168 133.665 36.4731 140.532" stroke="#664702" stroke-miterlimit="10" stroke-linecap="round" stroke-linejoin="round"/>
<path d="M37.8103 165.179C37.8103 165.179 36.766 150.536 36.4127 146.614" stroke="#664702" stroke-miterlimit="10" stroke-linecap="round" stroke-linejoin="round"/>
<path d="M55.0894 123.867C55.0894 123.867 56.6976 137.725 57.3677 148.903C58.0378 160.08 57.3677 164.133 57.3677 164.133" stroke="#664702" stroke-miterlimit="10" stroke-linecap="round" stroke-linejoin="round"/>
<path d="M53.1629 187.289L53.3091 185.676C53.3091 185.676 55.0728 186.921 58.7415 187.755C62.4102 188.588 62.9321 188.019 63.282 187.391C63.282 187.391 67.861 190.304 68.3908 191.162C69.0633 192.252 66.0861 193.74 62.1592 193.172C58.2059 192.6 53.4397 190.794 53.1634 190.696C52.8861 190.598 53.1629 187.289 53.1629 187.289Z" fill="#4C3600"/>
<path d="M35.5657 186.571C35.5657 186.571 34.8527 187.894 36.0252 188.482C37.1978 189.07 39.5097 188.303 41.0175 187.527C42.5254 186.75 43.2793 185.676 43.2793 185.676C43.2793 185.676 43.6643 189.43 43.5639 190.116C43.4635 190.803 41.3518 191.453 40.2578 191.928C39.1637 192.404 37.4999 193.319 35.5901 193.646C33.6802 193.973 32.34 193.809 31.4691 193.352C30.5983 192.894 30.8663 192.077 32.072 190.737C33.2781 189.397 35.0052 186.882 35.5657 186.571Z" fill="#4C3600"/>
<path d="M40.5721 64.449C40.5721 64.449 42.3567 64.7105 43.1944 65.4298" stroke="#664702" stroke-miterlimit="10" stroke-linecap="round" stroke-linejoin="round"/>
<path d="M48.4889 66.4756C48.4889 66.4756 49.293 71.7701 40.2802 72.3587" stroke="#664702" stroke-miterlimit="10" stroke-linecap="round" stroke-linejoin="round"/>
<path d="M51.8243 72.5655C51.8243 72.5655 49.025 71.5086 48.3549 68.3387" stroke="#664702" stroke-miterlimit="10" stroke-linecap="round" stroke-linejoin="round"/>
<path d="M36.9633 67.2924C36.9633 67.2924 36.226 68.6325 36.0588 69.6128" stroke="#664702" stroke-miterlimit="10" stroke-linecap="round" stroke-linejoin="round"/>
<path d="M35.4223 77.0323L35.1879 78.5031" stroke="#664702" stroke-miterlimit="10" stroke-linecap="round" stroke-linejoin="round"/>
<path d="M52.543 76.5093L52.7107 77.7677" stroke="#664702" stroke-miterlimit="10" stroke-linecap="round" stroke-linejoin="round"/>
<path d="M50.0892 79.2875L50.1974 80.1166" stroke="#664702" stroke-miterlimit="10" stroke-linecap="round" stroke-linejoin="round"/>
<path d="M91.0677 110.07L91.4098 182.261L101.126 181.325L103.669 126.119L105.181 125.141L115.603 181.406L124.833 180.106L117.322 108.939L91.0677 110.07Z" fill="#005355"/>
<path d="M102.15 54.3616C99.5792 53.7013 96.9417 55.0742 95.989 57.4959C95.8267 57.909 95.6459 58.285 95.4495 58.5722C94.5333 59.9128 93.3306 59.3542 92.987 59.7454C92.6434 60.1367 93.6171 61.6447 93.6171 61.6447C93.6171 61.6447 92.3822 67.5101 92.9139 69.0185C93.4456 70.5269 98.1416 70.3591 98.1416 70.3591L98.5996 75.2191L105.987 73.655V69.1302C105.987 69.1302 109.538 62.5384 109.824 59.6894C110.02 57.7407 106.142 55.3865 102.15 54.3616Z" fill="#FFA199"/>
<path d="M99.1726 54.9273C99.1726 54.9273 99.7033 56.3098 101.306 57.4412C102.909 58.5726 103.468 58.6145 103.468 58.6145C103.468 58.6145 101.406 60.0811 101.32 61.338C101.234 62.595 101.663 63.5586 101.663 63.5586C101.663 63.5586 102.909 62.1343 104.112 62.218C105.315 62.3017 105.572 64.0616 104.37 65.821C103.167 67.5809 101.492 67.2035 101.492 67.2035C101.492 67.2035 103.095 69.5914 105.987 69.1307C105.987 69.1307 110.554 63.2648 111.198 61.6727C111.842 60.0806 110.812 59.2425 110.812 59.2425C110.812 59.2425 111.929 59.2843 112.014 58.7818C112.1 58.2789 110.339 58.237 110.339 58.237C110.339 58.237 110.855 57.1474 110.211 56.4353C109.567 55.7231 109.309 56.9801 109.309 56.9801C109.309 56.9801 107.161 52.6644 103.382 51.5335C99.602 50.402 99.6882 51.7431 99.6882 51.7431C99.6882 51.7431 97.4548 51.1565 96.5527 52.4134C95.6506 53.6704 96.5527 54.6758 96.5527 54.6758C96.5527 54.6758 96.0946 55.1788 96.1516 55.7231C96.2091 56.2679 96.4323 56.6235 96.4323 56.6235C96.4323 56.6235 97.6692 55.011 99.1726 54.9273Z" fill="#4C3600"/>
<path d="M97.7674 57.5952C97.7674 57.5952 97.7153 58.2161 98.2626 58.5085C98.8099 58.8008 99.3133 58.6991 99.3133 58.6991" stroke="#4C3600" stroke-width="0.75" stroke-miterlimit="10" stroke-linecap="round" stroke-linejoin="round"/>
<path d="M97.497 60.0117C97.3576 60.3806 97.0954 60.6264 96.9117 60.5603C96.7279 60.4942 96.6924 60.1415 96.8322 59.7726C96.9716 59.4036 97.2338 59.1579 97.4175 59.2239C97.6008 59.29 97.6363 59.6428 97.497 60.0117Z" fill="#4C3600"/>
<path d="M104.327 63.1602C104.327 63.1602 102.115 63.9351 101.814 65.8419" stroke="#4C3600" stroke-width="0.75" stroke-miterlimit="10" stroke-linecap="round" stroke-linejoin="round"/>
<path d="M103.07 65.5904C103.07 65.5904 103.248 64.6211 102.681 64.2156" stroke="#4C3600" stroke-width="0.75" stroke-miterlimit="10" stroke-linecap="round" stroke-linejoin="round"/>
<path d="M108.557 73.1796L117.462 76.0011V109.886L91.108 110.781L89.184 76.9957L98.7046 73.5909L108.557 73.1796Z" fill="#4C3600"/>
<path d="M89.1841 76.9957L80.3048 88.1408L84.7445 95.2884L91.171 90.988C91.171 90.988 90.7363 78.4494 89.1841 76.9957Z" fill="#4C3600"/>
<path d="M86.7313 69.0913C86.7313 69.0913 87.6626 66.7594 88.3459 66.1533C89.0291 65.5477 90.7363 66.0929 91.171 66.6377C91.6057 67.183 91.0779 67.4925 90.612 67.4892C90.1461 67.4858 89.1841 67.3646 89.1841 67.3646L88.6563 69.0908C88.6563 69.0908 89.898 68.6667 90.7056 69.0908C91.5126 69.5148 91.1715 70.3929 91.1715 70.3929C91.1715 70.3929 91.9166 70.3929 92.2582 70.9382C92.5998 71.4834 92.2582 72.0891 92.2582 72.0891C92.2582 72.0891 93.0652 72.2707 93.0964 73.24C93.1276 74.2094 92.4756 75.4811 91.8547 75.7539C91.2338 76.0263 90.7991 76.2688 90.3956 76.0568C89.9921 75.8447 90.3644 74.9362 90.9546 74.8454L91.1719 74.0278L89.7747 74.6943C89.7747 74.6943 89.6042 76.1328 88.1139 77.6774L83.876 74.5127C83.875 74.5122 85.241 70.9082 86.7313 69.0913Z" fill="#FFA199"/>
<path d="M83.875 74.5122C83.875 74.5122 76.9363 86.8083 76.2374 90.1698C75.5391 93.5313 77.1224 95.8484 80.0562 94.9851C82.99 94.1218 88.1129 77.6769 88.1129 77.6769C88.1129 77.6769 85.7381 74.7546 83.875 74.5122Z" fill="#FFA199"/>
<path d="M98.7048 73.5909L95.6199 74.6943C95.6199 74.6943 96.1087 77.2381 101.743 77.4202C107.377 77.6018 109.855 73.5913 109.855 73.5913L105.702 72.1114L98.7048 73.5909Z" fill="#FFA199"/>
<path d="M77.7139 94.92C77.7139 94.92 80.1179 96.9537 84.7442 95.2884L81.4532 90.079L77.7139 94.92Z" fill="#FFA199"/>
<path d="M135.319 94.1375L128.807 88.0805L122.295 94.1375L128.818 98.1484C125.77 100.992 120.632 105.976 118.598 108.14L115.014 108.705C115.014 108.705 113.974 109.008 113.213 109.704C112.452 110.401 112.22 111.34 112.654 111.476C113.089 111.613 113.756 110.87 114.16 110.401L115.991 109.975L116.009 109.999C115.638 110.151 114.737 110.555 114.145 111.098C113.384 111.794 113.151 112.733 113.586 112.869C114.02 113.006 114.688 112.264 115.091 111.794L116.747 111.409C116.375 111.565 115.833 111.837 115.386 112.247C114.626 112.943 114.393 113.882 114.827 114.019C115.262 114.155 115.93 113.413 116.333 112.943L117.506 112.67C117.298 112.798 117.086 112.95 116.892 113.128C116.131 113.824 115.898 114.763 116.333 114.899C116.767 115.036 117.435 114.294 117.839 113.824L118.78 113.605C118.78 113.605 121.781 113.247 122.294 111.979C122.294 111.979 135.721 103.132 136.746 99.7699C137.772 96.4089 135.319 94.1375 135.319 94.1375Z" fill="#FFA199"/>
<path d="M100.776 181.101L101.126 186.515L96.8315 187.485L92.829 186.515L92.5366 181.499L100.776 181.101Z" fill="#332300"/>
<path d="M90.673 181.226L90.5688 183.177C90.5507 183.515 90.7125 183.828 90.9552 183.912C95.7048 185.549 100.065 184.341 101.363 183.903C101.594 183.825 101.754 183.543 101.754 183.219V181.26C101.754 180.833 101.477 180.508 101.165 180.562C96.3106 181.405 92.6092 180.851 91.2647 180.579C90.9659 180.519 90.695 180.817 90.673 181.226Z" fill="#036666"/>
<path d="M116.121 180.455L116.536 185.67L120.181 187.255L124.833 185.67L124.224 180.106L116.121 180.455Z" fill="#332300"/>
<path d="M117.462 76.0011C117.462 76.0011 125.881 83.4767 129.483 88.3229L123.472 95.2884L115.45 90.6243C115.45 90.6243 113.886 79.6702 117.462 76.0011Z" fill="#4C3600"/>
<path d="M128.818 98.1479C128.818 98.1479 130.879 97.2931 132.496 97.2275" stroke="#4C3600" stroke-width="0.75" stroke-miterlimit="10" stroke-linecap="round" stroke-linejoin="round"/>
<path d="M91.171 70.3934C91.171 70.3934 89.7382 70.2427 88.9293 70.6368" stroke="#4C3600" stroke-width="0.75" stroke-miterlimit="10" stroke-linecap="round" stroke-linejoin="round"/>
<path d="M92.2577 72.0896C92.2577 72.0896 90.8162 71.9845 89.8054 72.4038" stroke="#4C3600" stroke-width="0.75" stroke-miterlimit="10" stroke-linecap="round" stroke-linejoin="round"/>
<path d="M92.7368 112.709L111.336 112.117" stroke="#127575" stroke-width="0.75" stroke-miterlimit="10" stroke-linecap="round" stroke-linejoin="round"/>
<path d="M102.306 113.399C102.306 113.399 102.79 120.564 103.323 122.011C103.856 123.457 104.8 123.457 104.8 123.457L104.261 112.413" stroke="#127575" stroke-width="0.75" stroke-miterlimit="10" stroke-linecap="round" stroke-linejoin="round"/>
<path d="M97.6902 120.992L102.306 124.838" stroke="#127575" stroke-width="0.75" stroke-miterlimit="10" stroke-linecap="round" stroke-linejoin="round"/>
<path d="M109.82 118.527L107.293 122.915" stroke="#127575" stroke-width="0.75" stroke-miterlimit="10" stroke-linecap="round" stroke-linejoin="round"/>
<path d="M95.9717 123.457C95.9717 123.457 95.365 146.925 94.961 149.489C94.5565 152.053 94.961 153.137 94.961 153.137L94.7811 154.616V156.194L94.3542 177.887" stroke="#127575" stroke-width="0.75" stroke-miterlimit="10" stroke-linecap="round" stroke-linejoin="round"/>
<path d="M112.438 122.915C112.438 122.915 116.121 151.79 116.795 154.682C117.469 157.575 117.469 159.415 117.469 159.415L120.477 176.901" stroke="#127575" stroke-width="0.75" stroke-miterlimit="10" stroke-linecap="round" stroke-linejoin="round"/>
<path d="M115.395 81.1292C115.395 81.1292 115.279 87.7615 117.098 91.114" stroke="#664702" stroke-miterlimit="10" stroke-linecap="round" stroke-linejoin="round"/>
<path d="M91.0315 80.3662C91.0315 80.3662 90.7416 86.0862 91.0315 90.079" stroke="#664702" stroke-miterlimit="10" stroke-linecap="round" stroke-linejoin="round"/>
<path d="M96.1467 76.7176C96.1467 76.7176 97.365 78.4266 103.07 78.2954C108.776 78.1637 109.831 75.5343 109.831 75.5343" stroke="#664702" stroke-miterlimit="10" stroke-linecap="round" stroke-linejoin="round"/>
<path d="M92.7368 108.6L94.6238 109.718" stroke="#664702" stroke-miterlimit="10" stroke-linecap="round" stroke-linejoin="round"/>
<path d="M112.077 107.68L111.066 109.159" stroke="#664702" stroke-miterlimit="10" stroke-linecap="round" stroke-linejoin="round"/>
<path d="M100.756 108.6L101.565 109.389" stroke="#664702" stroke-miterlimit="10" stroke-linecap="round" stroke-linejoin="round"/>
<path d="M128.318 88.08C128.318 88.08 124.477 92.4945 122.657 94.0063" stroke="#664702" stroke-miterlimit="10" stroke-linecap="round" stroke-linejoin="round"/>
<path d="M131.566 193.966C129.693 194.288 125.566 194.78 122.759 194.159C119.423 193.418 116.456 193.123 116.122 192.405C116.06 192.281 116.065 191.595 116.098 190.689C116.188 188.517 116.457 185.084 116.457 185.084C117.584 184.988 118.768 186.764 119.726 186.64C120.688 186.516 123.467 185.135 124.24 185.084C125.018 185.038 125.184 185.43 126.094 186.368C127.004 187.303 129.075 188.587 130.542 189.769C131.189 190.293 131.623 191.145 131.901 191.932C132.042 192.327 132.142 192.709 132.213 193.022C132.316 193.459 132.019 193.887 131.566 193.966Z" fill="#4C3600"/>
<path d="M102.13 191.329C102.163 191.807 101.8 192.217 101.314 192.263C100.281 192.355 98.4932 192.53 96.8324 192.76C94.285 193.105 90.9736 193.551 88.5491 193.418C86.1246 193.284 84.686 192.405 84.686 192.405C84.6718 191.807 84.7707 191.305 85.0066 190.863C85.436 190.04 86.3229 189.428 87.7567 188.834C89.9594 187.923 91.6627 186.211 91.6627 186.211C93.2382 184.541 95.2334 186.782 96.8518 186.667C98.4703 186.552 100.956 185.788 100.956 185.788C100.956 185.788 101.588 186.059 101.753 187.048C101.843 187.582 101.961 189.036 102.055 190.26C102.083 190.652 102.111 191.021 102.13 191.329Z" fill="#4C3600"/>
<path d="M102.13 191.329C102.163 191.808 101.8 192.217 101.314 192.263C100.281 192.355 98.4932 192.53 96.8324 192.76C94.285 193.105 90.9736 193.551 88.5491 193.418C86.1246 193.284 84.686 192.405 84.686 192.405C84.6718 191.807 84.7707 191.305 85.0066 190.863C85.6056 191.218 87.1952 191.811 91.1203 191.742C95.4459 191.664 100.177 190.688 102.055 190.261C102.083 190.652 102.111 191.021 102.13 191.329Z" fill="#332300"/>
<path d="M131.566 193.966C129.693 194.288 125.566 194.78 122.759 194.159C119.423 193.418 116.456 193.123 116.122 192.406C116.06 192.281 116.065 191.595 116.098 190.689C116.797 191.122 118.268 191.854 120.476 192.029C123.514 192.272 127.363 193.041 131.901 191.932C132.042 192.328 132.142 192.71 132.213 193.023C132.316 193.459 132.019 193.887 131.566 193.966Z" fill="#332300"/>
<path d="M125.332 179.39L125.584 181.327C125.628 181.663 125.498 181.987 125.274 182.088C120.878 184.058 116.63 183.165 115.359 182.82C115.133 182.759 114.959 182.489 114.934 182.167L114.78 180.213C114.746 179.788 114.985 179.444 115.286 179.476C119.977 179.971 123.459 179.153 124.718 178.787C124.998 178.706 125.28 178.984 125.332 179.39Z" fill="#036666"/>
<path d="M93.9833 64.2156C93.9833 64.2156 95.7017 64.15 96.3757 64.5013" stroke="#4C3600" stroke-width="0.75" stroke-miterlimit="10" stroke-linecap="round" stroke-linejoin="round"/>
<path d="M109.584 58.3112C109.584 58.3112 108.64 57.6352 107.966 57.5952" stroke="#664702" stroke-miterlimit="10" stroke-linecap="round" stroke-linejoin="round"/>
<path d="M98.9367 53.8738C98.9367 53.8738 98.8333 56.9126 103.467 58.6145C103.467 58.6145 105.102 58.0987 105.709 58.1557" stroke="#664702" stroke-miterlimit="10" stroke-linecap="round" stroke-linejoin="round"/>
<path d="M101.663 63.5581C101.663 63.5581 100.114 60.7252 103.467 58.614" stroke="#664702" stroke-miterlimit="10" stroke-linecap="round" stroke-linejoin="round"/>
<path d="M108.776 60.7761V61.7293" stroke="#664702" stroke-miterlimit="10" stroke-linecap="round" stroke-linejoin="round"/>
<path d="M103.097 53.6766L103.25 54.4324" stroke="#664702" stroke-miterlimit="10" stroke-linecap="round" stroke-linejoin="round"/>
<path d="M105.17 53.8738V54.0545" stroke="#664702" stroke-miterlimit="10" stroke-linecap="round" stroke-linejoin="round"/>
<path d="M97.6224 53.0519L97.7661 53.6766" stroke="#664702" stroke-miterlimit="10" stroke-linecap="round" stroke-linejoin="round"/>
<path d="M106.45 64.3558V65.3123" stroke="#664702" stroke-miterlimit="10" stroke-linecap="round" stroke-linejoin="round"/>
<path d="M62.8839 15.8094C59.7825 15.0217 58.1411 11.654 59.5598 8.85104C61.2382 5.53468 64.6939 1.75243 71.7642 0.388997C80.7906 -1.35238 90.0203 2.84537 91.6982 11.1225C92.8644 16.8752 89.185 21.2441 83.8959 24.7649C82.0285 26.0404 82.3014 27.6957 82.6942 29.633C83.0621 31.4485 81.8516 33.2113 79.9904 33.5702L76.8013 34.1853C74.9401 34.5443 73.1331 33.3634 72.7652 31.5478L72.1345 28.4364C71.6111 25.8536 71.3031 23.7171 73.6662 21.4928C76.8734 18.4954 80.2672 17.6582 79.4222 13.4904C78.851 10.6723 76.2803 9.09444 73.5722 9.6169C71.1175 10.0904 69.6067 11.556 68.731 13.2204C67.6301 15.3107 65.2158 16.4017 62.8839 15.8094ZM87.3205 42.5865C88.07 46.2842 85.608 49.8701 81.7565 50.6131C77.9655 51.3443 74.2895 48.9421 73.54 45.2445C72.7783 41.4874 75.2403 37.9015 79.0318 37.1704C82.8833 36.4273 86.5592 38.8295 87.3205 42.5865Z" fill="#FF9400"/>
<path d="M130.834 54.5632C129.586 58.131 125.616 60.035 121.901 58.7985C118.243 57.5819 116.291 53.7084 117.539 50.1401C118.806 46.5157 122.777 44.6122 126.435 45.8292C130.15 47.0648 132.101 50.9383 130.834 54.5632ZM123.404 19.4524C121.131 17.2646 121.418 13.5537 124.072 11.8204C127.225 9.76047 132.164 8.15839 139.002 10.4332C147.71 13.3302 153.55 21.468 150.758 29.4537C148.818 35.0044 143.393 36.9926 137.007 37.4603C134.736 37.6534 134.123 39.2203 133.47 41.0886C132.858 42.8404 130.906 43.776 129.11 43.1789L126.033 42.1554C124.237 41.5583 123.278 39.6543 123.89 37.9025L124.94 34.9008C125.81 32.4088 126.639 30.4083 129.826 29.6353C134.14 28.6042 137.509 29.5355 138.914 25.5141C139.864 22.7958 138.447 20.1745 135.834 19.3055C133.466 18.5177 131.407 19.0497 129.795 20.0632C127.77 21.3368 125.12 21.1034 123.404 19.4524Z" fill="#CC6B00"/>
<path d="M28.9379 65.5824V45.4118C28.9379 43.4427 27.3014 41.8463 25.2829 41.8463H4.6056C2.58704 41.8463 0.950562 43.4427 0.950562 45.4118V65.5824C0.950562 67.5514 2.58704 69.1478 4.6056 69.1478H18.2696C19.5464 71.2125 22.274 73.811 28.1109 75.3822C28.1109 75.3822 25.0324 72.5716 23.7468 69.1478H25.2829C27.3014 69.1478 28.9379 67.5514 28.9379 65.5824Z" fill="#CC6B00"/>
<path d="M11.0585 50.2413C10.0624 49.7721 9.76558 48.5285 10.442 47.6752C11.2349 46.6749 12.6516 45.64 15.1058 45.64C18.2579 45.64 21.0743 47.649 21.0743 50.5394C21.0743 52.5484 19.5401 53.7788 17.5225 54.6188C16.8081 54.9264 16.7871 55.5002 16.7871 56.1767C16.7871 56.8108 16.2603 57.3247 15.6102 57.3247H14.4967C13.8465 57.3247 13.3197 56.8108 13.3197 56.1767V55.0904C13.3197 54.1885 13.3616 53.4503 14.3071 52.8555C15.5888 52.0559 16.7867 51.9946 16.7867 50.5394C16.7867 49.5553 16.0303 48.8584 15.0844 48.8584C14.2018 48.8584 13.5839 49.2768 13.176 49.8006C12.7086 50.4011 11.9016 50.6388 11.2057 50.3107L11.0585 50.2413ZM17.4597 60.8303C17.4597 62.1219 16.388 63.1673 15.043 63.1673C13.7194 63.1673 12.6472 62.1219 12.6472 60.8303C12.6472 59.5182 13.7189 58.4728 15.043 58.4728C16.388 58.4728 17.4597 59.5182 17.4597 60.8303Z" fill="#FFF3EB"/>
<path d="M180.598 60.0202V39.8497C180.598 37.8806 182.235 36.2842 184.253 36.2842H204.931C206.949 36.2842 208.586 37.8806 208.586 39.8497V60.0202C208.586 61.9893 206.949 63.5857 204.931 63.5857H191.267C189.99 65.6503 187.262 68.2489 181.425 69.82C181.425 69.82 184.504 67.0095 185.789 63.5857H184.253C182.235 63.5857 180.598 61.9893 180.598 60.0202Z" fill="#FF9400"/>
<path d="M190.431 44.6792C189.434 44.21 189.137 42.9664 189.814 42.113C190.607 41.1128 192.024 40.0784 194.478 40.0784C197.63 40.0784 200.446 42.0874 200.446 44.9778C200.446 46.9868 198.912 48.2166 196.895 49.0571C196.18 49.3647 196.159 49.939 196.159 50.615C196.159 51.2492 195.632 51.7631 194.982 51.7631H193.869C193.219 51.7631 192.692 51.2492 192.692 50.615V49.5287C192.692 48.6269 192.734 47.8886 193.679 47.2944C194.961 46.4948 196.159 46.433 196.159 44.9778C196.159 43.9937 195.402 43.2968 194.457 43.2968C193.574 43.2968 192.956 43.7151 192.548 44.239C192.061 44.8651 191.157 45.021 190.431 44.6792ZM196.832 55.2682C196.832 56.5598 195.76 57.6052 194.415 57.6052C193.091 57.6052 192.019 56.5598 192.019 55.2682C192.019 53.9561 193.091 52.9107 194.415 52.9107C195.76 52.9107 196.832 53.9561 196.832 55.2682Z" fill="#FFF3EB"/>
<path d="M2.24439 95.8845C1.25656 96.1993 0.188311 95.5831 0.0484446 94.5782C-0.128459 93.3093 0.109362 91.538 1.94711 89.8142C4.21957 87.683 7.67674 87.2276 9.73039 89.3112C11.1573 90.7593 10.9253 92.6832 10.0681 94.6528C9.77181 95.3573 10.1641 95.7857 10.6446 96.2734C11.0949 96.7303 11.0803 97.4567 10.612 97.8959L9.80885 98.6494C9.34052 99.0887 8.59586 99.0744 8.14556 98.6176L7.37362 97.8341C6.73277 97.1838 6.23861 96.6233 6.49836 95.5556C6.85412 94.1127 7.67431 93.2585 6.64017 92.2093C5.94084 91.5 4.90038 91.508 4.21859 92.1475C3.59529 92.7322 3.44032 93.4348 3.50806 94.0771C3.58993 94.8558 3.14986 95.595 2.38669 95.838L2.24439 95.8845ZM14.4361 99.1738C15.3533 100.105 15.3236 101.583 14.3538 102.492C13.3991 103.387 11.8839 103.358 10.9668 102.427C10.0345 101.481 10.0642 100.002 11.0189 99.1082C11.9887 98.1988 13.5043 98.2278 14.4361 99.1738Z" fill="#FF9400"/>
<path d="M201.354 111.188C200.533 112.201 199.028 112.372 197.973 111.558C196.934 110.757 196.759 109.289 197.58 108.276C198.414 107.247 199.92 107.075 200.959 107.876C202.013 108.69 202.189 110.159 201.354 111.188ZM203.044 98.9594C202.59 98.0476 203.072 96.9323 204.073 96.6604C205.338 96.3172 207.169 96.3067 209.169 97.8498C211.641 99.7581 212.573 103.037 210.734 105.305C209.457 106.88 207.472 106.917 205.355 106.355C204.599 106.164 204.217 106.601 203.787 107.131C203.384 107.629 202.644 107.713 202.134 107.32L201.26 106.646C200.751 106.252 200.664 105.53 201.067 105.033L201.759 104.181C202.332 103.474 202.834 102.92 203.954 103.026C205.468 103.175 206.446 103.851 207.372 102.71C207.998 101.938 207.848 100.934 207.106 100.361C206.428 99.8384 205.694 99.7837 205.05 99.9359C204.27 100.12 203.46 99.7952 203.11 99.0906L203.044 98.9594Z" fill="#FF9400"/>
<path d="M163.587 182.788V192.91C163.587 192.91 161.646 193.628 161.046 193.825C160.442 194.021 155.15 195.59 151.869 195.457C148.589 195.324 147.853 194.607 147.853 194.607C147.853 194.607 147.74 193.98 148.148 193.221C148.373 192.805 148.753 192.348 149.395 191.932C151.204 190.753 155.488 189.12 156.022 187.159C156.556 185.197 156.556 181.284 156.556 181.284L163.587 182.788Z" fill="#4C3600"/>
<path d="M191.156 189.463C191.156 189.463 189.614 190.821 189.126 191.219C188.639 191.617 184.299 194.954 181.196 195.997C178.089 197.044 177.137 196.637 177.137 196.637C177.137 196.637 176.846 196.17 176.884 195.421C176.903 194.918 177.067 194.291 177.568 193.592C178.815 191.859 182.194 188.814 181.964 186.797C181.73 184.781 180.268 181.133 180.268 181.133L187.378 180.035L190.499 187.826L191.156 189.463Z" fill="#4C3600"/>
<path d="M181.399 150.053C180.962 144.809 180.134 121.345 176.244 113.813H154.081L155.319 149.074L155.554 183.609C155.554 183.609 162.819 185.79 166.133 183.609L165.759 126.41L171.439 154.831L179.055 184.665C182.068 186.28 188.798 183.831 188.798 183.831L181.399 150.053Z" fill="#FFC215"/>
<path d="M158.234 64.7913C158.234 64.7913 157.17 72.2141 157.818 74.2821C158.466 76.3496 159.985 78.1913 162.605 78.3558C164.278 78.4608 168.895 76.5393 169.451 75.0855C170.006 73.6313 170.645 65.9247 170.645 65.9247C170.645 65.9247 163.881 61.9922 158.234 64.7913Z" fill="#FFA199"/>
<path d="M163.217 77.1017C163.217 77.1017 163.117 81.9778 163.63 82.8806C164.143 83.7834 168.247 82.6999 169.45 81.1948C169.45 81.1948 169.142 75.0846 169.45 73.9712L163.217 77.1017Z" fill="#FFA199"/>
<path d="M158.235 64.7913C158.235 64.7913 158.651 65.3333 160.086 65.4687C161.521 65.6042 162.076 65.1303 162.076 65.1303C162.076 65.1303 162.539 65.83 163.696 66.2365C164.853 66.643 166.33 66.2365 166.33 66.2365C166.33 66.2365 165.956 67.7264 166.33 68.6748C166.704 69.6228 167.584 70.0744 167.584 70.0744C167.584 70.0744 168.278 68.72 169.157 68.991C170.036 69.2619 169.836 70.9325 169.45 72.1514C169.065 73.3703 167.537 73.3251 167.537 73.3251C167.537 73.3251 168.081 75.7183 169.313 76.3952C169.313 76.3952 173.785 70.526 173.368 67.7264C172.952 64.9273 171.795 64.7918 171.795 64.7918C171.795 64.7918 171.471 62.2636 167.814 61.1797C164.158 60.0963 159.668 61.541 159.668 61.541C159.668 61.541 156.945 61.7773 156.706 64.295C156.475 66.7333 157.876 67.773 157.876 67.773L158.235 64.7913Z" fill="#4C3600"/>
<path d="M178.88 83.21L189.753 95.7039C189.753 95.7039 186.837 99.4881 184.929 100.468L175.692 93.1078C175.692 93.1078 176.091 85.2167 178.88 83.21Z" fill="#005355"/>
<path d="M155.621 82.457L145.243 94.2178L149.394 98.6248C149.394 98.6248 154.148 96.7617 155.621 94.5097C157.095 92.2583 155.621 82.457 155.621 82.457Z" fill="#005355"/>
<path d="M137.883 80.9652C137.899 80.1575 137.941 77.6974 137.878 77.1868C137.802 76.5745 137.476 76.5008 137.174 77.3094C136.988 77.8105 136.771 78.592 136.764 79.4107L134.165 78.5835C133.658 78.3116 132.747 77.8419 132.302 77.7235C131.666 77.5543 131.262 77.6389 131.623 77.9351C131.851 78.1219 132.786 78.6382 133.446 78.9933L133.333 79.0846C133.032 78.9186 131.732 78.2122 131.172 78.0629C130.536 77.8937 130.132 77.9783 130.493 78.2745C130.779 78.5088 132.175 79.259 132.746 79.5623L132.582 79.695C132.213 79.4924 131.005 78.8421 130.469 78.6995C129.833 78.5302 129.429 78.6149 129.79 78.911C130.068 79.1388 131.396 79.8552 131.994 80.1732L131.86 80.2821C131.517 80.0948 130.499 79.549 130.043 79.4278C129.49 79.2809 129.139 79.3541 129.453 79.6113C129.766 79.8685 131.623 80.8435 131.623 80.8435L134.311 82.6358C134.658 83.8599 136.793 91.2043 139.182 94.9685C140.684 97.3345 142.622 99.0949 144.673 99.6711C146.648 100.226 149.393 98.6243 149.393 98.6243L137.883 80.9652Z" fill="#FFA199"/>
<path d="M201.313 82.303C200.857 82.4242 199.839 82.97 199.496 83.1573L199.362 83.0484C199.959 82.7304 201.288 82.0144 201.566 81.7862C201.927 81.4901 201.522 81.4054 200.886 81.5747C200.351 81.7173 199.143 82.3676 198.773 82.5702L198.61 82.4375C199.181 82.1342 200.576 81.384 200.862 81.1497C201.223 80.8535 200.819 80.7689 200.183 80.9381C199.623 81.0869 198.323 81.7934 198.022 81.9598L197.91 81.8685C198.569 81.5134 199.504 80.9971 199.733 80.8102C200.094 80.5141 199.689 80.4295 199.053 80.5987C198.608 80.7171 197.698 81.1868 197.19 81.4587L194.591 82.2859C194.584 81.4672 194.368 80.6857 194.181 80.1846C193.88 79.3765 193.553 79.4497 193.478 80.062C193.42 80.5274 193.45 82.6172 193.468 83.5946L187.836 93.5033L184.888 100.459C184.888 100.459 188.447 101.663 191.062 99.1876C193.435 96.9414 196.688 87.1539 197.27 85.3603L199.732 83.7192C199.732 83.7192 201.588 82.7442 201.902 82.487C202.217 82.2293 201.865 82.1561 201.313 82.303Z" fill="#FFA199"/>
<path d="M177.114 105.921C178.028 97.3711 179.28 84.7375 178.879 83.2105C178.353 81.2039 169.45 79.3917 169.45 79.3917L164.373 81.9512C163.935 82.1723 163.407 81.8884 163.364 81.4088L163.212 79.7183C163.212 79.7183 156.893 81.4107 155.621 82.4575C154.349 83.5043 153.239 92.3243 153.88 98.9865C154.143 101.718 154.081 113.813 154.081 113.813L153.144 123.233C153.144 123.233 159.036 124.917 167.071 124.917C175.106 124.917 180.596 121.053 180.596 121.053C180.596 121.053 178.358 112.688 177.114 105.921Z" fill="#005355"/>
<path d="M176.344 84.0938C176.344 84.0938 173.691 90.224 178.261 94.5097" stroke="#127575" stroke-width="0.75" stroke-miterlimit="10" stroke-linecap="round" stroke-linejoin="round"/>
<path d="M156.276 84.0938C156.276 84.0938 153.612 91.5661 154.081 96.0595" stroke="#127575" stroke-width="0.75" stroke-miterlimit="10" stroke-linecap="round" stroke-linejoin="round"/>
<path d="M174.938 105.452L173.396 106.334" stroke="#127575" stroke-width="0.75" stroke-miterlimit="10" stroke-linecap="round" stroke-linejoin="round"/>
<path d="M162.451 80.3058C162.451 80.3058 162.15 82.8207 163.054 83.4083C163.958 83.9959 169.716 80.0444 169.716 80.0444" stroke="#127575" stroke-width="0.75" stroke-miterlimit="10" stroke-linecap="round" stroke-linejoin="round"/>
<path d="M154.483 121.128C154.483 121.128 160.241 123.247 166.87 123.233C173.498 123.218 178.855 120.344 178.855 120.344" stroke="#127575" stroke-width="0.75" stroke-miterlimit="10" stroke-linecap="round" stroke-linejoin="round"/>
<path d="M163.587 191.068V192.91C163.587 192.91 161.646 193.628 161.046 193.825C160.442 194.021 155.15 195.59 151.869 195.457C148.589 195.324 147.853 194.607 147.853 194.607C147.853 194.607 147.74 193.98 148.148 193.221C149.099 193.482 151.143 193.838 154.799 193.679C159.003 193.491 162.289 191.827 163.587 191.068Z" fill="#332300"/>
<path d="M191.156 189.463C191.156 189.463 189.614 190.821 189.126 191.219C188.639 191.617 184.299 194.954 181.196 195.997C178.089 197.043 177.137 196.637 177.137 196.637C177.137 196.637 176.846 196.17 176.884 195.42C177.615 195.407 178.984 195.123 181.468 193.967C185.086 192.284 188.986 189.116 190.5 187.827L191.156 189.463Z" fill="#332300"/>
<path d="M160.199 70.8184C160.199 70.8184 159.798 71.1611 159.773 71.5533C159.748 71.9451 159.986 72.1656 159.986 72.1656" stroke="#4C3600" stroke-width="0.75" stroke-miterlimit="10" stroke-linecap="round" stroke-linejoin="round"/>
<path d="M158.593 67.1693C158.593 67.1693 159.572 67.1935 160.199 66.8755" stroke="#4C3600" stroke-width="0.75" stroke-miterlimit="10" stroke-linecap="round" stroke-linejoin="round"/>
<path d="M163.21 67.1198C163.21 67.1198 164.138 67.7811 164.942 67.7568" stroke="#4C3600" stroke-width="0.75" stroke-miterlimit="10" stroke-linecap="round" stroke-linejoin="round"/>
<path d="M160.325 73.6351C160.325 73.6351 161.706 73.7934 162.61 73.9712" stroke="#4C3600" stroke-width="0.75" stroke-miterlimit="10" stroke-linecap="round" stroke-linejoin="round"/>
<path d="M163.21 78.3254C163.21 78.3254 166.526 77.7501 167.456 75.3256" stroke="#4C3600" stroke-width="0.75" stroke-miterlimit="10" stroke-linecap="round" stroke-linejoin="round"/>
<path d="M159.771 69.1222C159.771 69.4188 159.629 69.6589 159.453 69.6589C159.278 69.6589 159.136 69.4183 159.136 69.1222C159.136 68.826 159.278 68.5854 159.453 68.5854C159.629 68.5854 159.771 68.826 159.771 69.1222Z" fill="#4C3600"/>
<path d="M163.527 69.4488C163.527 69.7454 163.386 69.9855 163.21 69.9855C163.035 69.9855 162.893 69.7449 162.893 69.4488C162.893 69.1521 163.035 68.912 163.21 68.912C163.386 68.912 163.527 69.1526 163.527 69.4488Z" fill="#4C3600"/>
<path d="M136.765 79.4107C136.765 79.4107 136.305 80.4038 136.371 81.1549" stroke="#4C3600" stroke-width="0.75" stroke-miterlimit="10" stroke-linecap="round" stroke-linejoin="round"/>
<path d="M133.827 78.6073L131.684 80.2826" stroke="#4C3600" stroke-width="0.75" stroke-miterlimit="10" stroke-linecap="round" stroke-linejoin="round"/>
<path d="M134.312 82.6362L135.165 82.9509" stroke="#4C3600" stroke-width="0.75" stroke-miterlimit="10" stroke-linecap="round" stroke-linejoin="round"/>
<path d="M194.592 82.2854C194.592 82.2854 195.466 83.0812 195.446 83.6365" stroke="#4C3600" stroke-width="0.75" stroke-miterlimit="10" stroke-linecap="round" stroke-linejoin="round"/>
<path d="M197.503 81.6117L199.496 83.1573" stroke="#4C3600" stroke-width="0.75" stroke-miterlimit="10" stroke-linecap="round" stroke-linejoin="round"/>
<path d="M197.271 85.3603L196.465 85.8575" stroke="#4C3600" stroke-width="0.75" stroke-miterlimit="10" stroke-linecap="round" stroke-linejoin="round"/>
<path d="M165.559 63.4074L165.712 64.1633" stroke="#664702" stroke-miterlimit="10" stroke-linecap="round" stroke-linejoin="round"/>
<path d="M171.641 64.7989C171.641 64.7989 170.784 64.7732 169.45 65.0281" stroke="#664702" stroke-miterlimit="10" stroke-linecap="round" stroke-linejoin="round"/>
<path d="M160.884 62.8636L161.328 63.7854" stroke="#664702" stroke-miterlimit="10" stroke-linecap="round" stroke-linejoin="round"/>
<path d="M157.778 64.0602C157.778 64.0602 158.485 66.3169 162.076 65.1298C162.076 65.1298 163.63 67.1383 166.33 66.236C166.33 66.236 167.229 65.6394 167.96 65.5377" stroke="#664702" stroke-miterlimit="10" stroke-linecap="round" stroke-linejoin="round"/>
<path d="M167.437 69.986C167.437 69.986 165.567 68.7761 166.28 66.469" stroke="#664702" stroke-miterlimit="10" stroke-linecap="round" stroke-linejoin="round"/>
<path d="M171.119 66.6073L171.458 67.4383" stroke="#664702" stroke-miterlimit="10" stroke-linecap="round" stroke-linejoin="round"/>
<path d="M170.753 71.3442V72.1657" stroke="#664702" stroke-miterlimit="10" stroke-linecap="round" stroke-linejoin="round"/>
<path d="M169.544 126.41C169.544 126.41 172.468 147.753 173.442 152.186C174.417 156.618 175.113 157.217 175.113 158.548C175.113 159.879 175.948 161.78 175.948 161.78L180.694 182.262" stroke="#D69F18" stroke-miterlimit="10"/>
<path d="M157.151 125.514C157.151 125.514 156.873 153.255 157.151 155.82C157.429 158.384 156.873 158.52 157.151 160.014C157.429 161.508 157.231 163.138 157.231 163.138L157.986 181.882" stroke="#D69F18" stroke-miterlimit="10"/>
<path d="M155.538 181.284C155.538 181.284 162.214 182.968 166.122 181.882" stroke="#D69F18" stroke-miterlimit="10"/>
<path d="M188.122 180.744C188.122 180.744 182.607 182.504 178.442 182.261" stroke="#D69F18" stroke-miterlimit="10"/>
</svg>
